<svg width="24" height="25" viewBox="0 0 24 25" fill="none" xmlns="http://www.w3.org/2000/svg">
<path d="M12 13.5668C12.5523 13.5668 13 13.1191 13 12.5668C13 12.0145 12.5523 11.5668 12 11.5668C11.4477 11.5668 11 12.0145 11 12.5668C11 13.1191 11.4477 13.5668 12 13.5668Z" stroke="white" stroke-width="2" stroke-linecap="round" stroke-linejoin="round"/>
<path d="M19 13.5668C19.5523 13.5668 20 13.1191 20 12.5668C20 12.0145 19.5523 11.5668 19 11.5668C18.4477 11.5668 18 12.0145 18 12.5668C18 13.1191 18.4477 13.5668 19 13.5668Z" stroke="white" stroke-width="2" stroke-linecap="round" stroke-linejoin="round"/>
<path d="M5 13.5668C5.55228 13.5668 6 13.1191 6 12.5668C6 12.0145 5.55228 11.5668 5 11.5668C4.44772 11.5668 4 12.0145 4 12.5668C4 13.1191 4.44772 13.5668 5 13.5668Z" stroke="white" stroke-width="2" stroke-linecap="round" stroke-linejoin="round"/>
</svg>
