<svg width="24" height="25" viewBox="0 0 24 25" fill="none" xmlns="http://www.w3.org/2000/svg">
<path d="M22 17.4868V20.4868C22.0011 20.7653 21.9441 21.0409 21.8325 21.2961C21.7209 21.5513 21.5573 21.7804 21.3521 21.9686C21.1469 22.1569 20.9046 22.3003 20.6408 22.3895C20.3769 22.4787 20.0974 22.5118 19.82 22.4868C16.7428 22.1524 13.787 21.1009 11.19 19.4168C8.77383 17.8814 6.72534 15.833 5.19 13.4168C3.49998 10.808 2.44824 7.83777 2.12 4.74678C2.09501 4.47024 2.12788 4.19154 2.2165 3.9284C2.30513 3.66527 2.44757 3.42347 2.63477 3.2184C2.82196 3.01333 3.04981 2.84949 3.30379 2.7373C3.55778 2.62511 3.83234 2.56704 4.11 2.56678H7.11C7.59531 2.562 8.06579 2.73386 8.43376 3.05031C8.80173 3.36676 9.04208 3.80622 9.11 4.28678C9.23662 5.24684 9.47145 6.1895 9.81 7.09678C9.94455 7.4547 9.97366 7.84369 9.89391 8.21766C9.81415 8.59162 9.62886 8.93489 9.36 9.20678L8.09 10.4768C9.51356 12.9803 11.5865 15.0532 14.09 16.4768L15.36 15.2068C15.6319 14.9379 15.9752 14.7526 16.3491 14.6729C16.7231 14.5931 17.1121 14.6222 17.47 14.7568C18.3773 15.0953 19.3199 15.3302 20.28 15.4568C20.7658 15.5253 21.2094 15.77 21.5265 16.1443C21.8437 16.5186 22.0122 16.9964 22 17.4868Z" stroke="white" stroke-width="2" stroke-linecap="round" stroke-linejoin="round"/>
</svg>
